<?xml version="1.0" encoding="utf-8"?>
<!-- Generator: Adobe Illustrator 25.2.3, SVG Export Plug-In . SVG Version: 6.00 Build 0)  -->
<svg version="1.1" id="Layer_1" xmlns="http://www.w3.org/2000/svg" xmlns:xlink="http://www.w3.org/1999/xlink" x="0px" y="0px"
	 viewBox="0 0 250 250" enable-background="new 0 0 250 250" xml:space="preserve">
<linearGradient id="SVGID_1_" gradientUnits="userSpaceOnUse" x1="5" y1="125" x2="245" y2="125">
	<stop  offset="0" style="stop-color:#209EA4"/>
	<stop  offset="0.2418" style="stop-color:#1F9DA4"/>
	<stop  offset="0.436" style="stop-color:#1C97A4"/>
	<stop  offset="0.6137" style="stop-color:#198EA4"/>
	<stop  offset="0.7815" style="stop-color:#1680A2"/>
	<stop  offset="0.9409" style="stop-color:#1271A0"/>
	<stop  offset="1" style="stop-color:#116A9F"/>
</linearGradient>
<path fill="url(#SVGID_1_)" d="M244.3814,218.0031L128.997,18.151c-0.8248-1.4279-2.3483-2.3077-3.997-2.3077
	s-3.1722,0.8798-3.997,2.3077L90.9913,70.1317c-0.8248,1.4279-0.8248,3.1875,0,4.6154l37.8249,65.5138
	c-2.0197,2.4062-3.2393,5.5058-3.2393,8.8927c0,7.6469,6.1988,13.8461,13.8461,13.8461c7.6469,0,13.8461-6.1992,13.8461-13.8461
	c0-7.6469-6.1992-13.8461-13.8461-13.8461c-0.9096,0-1.797,0.0935-2.6574,0.261l-36.448-63.129L125,29.6894l107.3904,186.006
	h-109.407l-54.0197-93.565c-0.8248-1.4279-2.3483-2.3077-3.997-2.3077s-3.1722,0.8798-3.997,2.3077L5.6186,218.0031
	c-0.8248,1.4279-0.8248,3.1875,0,4.6154s2.3483,2.3077,3.997,2.3077h42.31c1.9029,5.3742,7.0155,9.2305,13.0416,9.2305
	c7.6469,0,13.8461-6.199,13.8461-13.8461c0-7.6469-6.1992-13.8461-13.8461-13.8461c-6.0261,0-11.1386,3.8566-13.0416,9.231h-34.316
	l47.3572-82.0266l51.3551,88.9496c0.8248,1.4279,2.3483,2.3077,3.997,2.3077h120.0656c1.6487,0,3.1722-0.8798,3.997-2.3077
	C245.2062,221.1906,245.2062,219.431,244.3814,218.0031z M145.8846,149.1535c0,3.5629-2.8986,6.4615-6.4615,6.4615
	s-6.4615-2.8986-6.4615-6.4615s2.8986-6.4615,6.4615-6.4615S145.8846,145.5906,145.8846,149.1535z M64.9672,213.849
	c3.5629,0,6.4615,2.8986,6.4615,6.4615c0,3.5629-2.8986,6.4615-6.4615,6.4615s-6.4615-2.8986-6.4615-6.4615
	C58.5057,216.7476,61.4043,213.849,64.9672,213.849z"/>
</svg>
